<?xml version="1.0" encoding="utf-8"?><svg xmlns="http://www.w3.org/2000/svg" xmlns:xlink="http://www.w3.org/1999/xlink" width="2236" height="1333" preserveAspectRatio="xMidYMid" viewBox="0 0 2236 1333" style="z-index:1;shape-rendering:crispedges;margin-right:-2px;display:block;background-repeat-y:initial;background-repeat-x:initial;animation-play-state:paused" ><g transform="translate(1118,666.5) scale(-1,1) translate(-1118,-666.5)" style="transform:matrix(-1, 0, 0, 1, 2236, 0);animation-play-state:paused" ><g transform="translate(1736.3753126852152,186.83893981118075) scale(100)" opacity="0.31" style="transform:matrix(100, 0, 0, 100, 1736.38, 186.839);opacity:0.31;animation-play-state:paused" ><path d="M7.591219999999999 0 C7.591219999999999 1.7999799999999995 7.8808302543175275 2.4715615936960855 6.980840254317528 4.030389999999999 S5.354438406303913 5.674199365716505 3.7956100000000004 6.574189365716505 S1.79998 8.06078 4.9358042128155e-16 8.06078 S-2.236781593696084 7.4741793657165045 -3.7956099999999977 6.574189365716506 S-6.080850254317525 5.589218406303916 -6.980840254317526 4.030390000000002 S-7.591219999999999 1.7999800000000004 -7.591219999999999 9.296563274623369e-16 S-7.8808302543175275 -2.4715615936960833 -6.9808402543175285 -4.030389999999997 S-5.354438406303916 -5.674199365716503 -3.795610000000003 -6.574189365716504 S-1.799980000000001 -8.06078 -1.4807412638446501e-15 -8.06078 S2.2367815936960804 -7.474179365716507 3.7956099999999946 -6.574189365716508 S6.080850254317524 -5.589218406303916 6.980840254317525 -4.030390000000003 S7.591219999999999 -1.7999800000000012 7.591219999999999 -1.8593126549246738e-15" fill="#0c00ff" stroke-width="0" transform="matrix(1,0,0,1,0,0)" style="transform:matrix(1, 0, 0, 1, 0, 0);animation-play-state:paused" ></path></g>
<g transform="translate(1860.0503752222583,90.90672777341695) scale(100)" opacity="0.31" style="transform:matrix(100, 0, 0, 100, 1860.05, 90.9067);opacity:0.31;animation-play-state:paused" ><path d="M9.109464 0 C9.109464 2.159976 9.456996305181034 2.9658739124353026 8.377008305181034 4.836467999999999 S6.425326087564697 6.809039238859806 4.5547320000000004 7.889027238859806 S2.1599760000000003 9.672936 5.922965055378601e-16 9.672936 S-2.6841379124353013 8.969015238859807 -4.554731999999998 7.889027238859807 S-7.2970203051810305 6.7070620875647 -8.37700830518103 4.8364680000000035 S-9.109464 2.1599760000000012 -9.109464 1.1155875929548044e-15 S-9.456996305181033 -2.9658739124353004 -8.377008305181034 -4.836467999999997 S-6.4253260875647005 -6.809039238859804 -4.554732000000004 -7.889027238859805 S-2.1599760000000017 -9.672936 -1.7768895166135803e-15 -9.672936 S2.684137912435296 -8.969015238859809 4.554731999999993 -7.889027238859811 S7.29702030518103 -6.707062087564701 8.37700830518103 -4.836468000000004 S9.109464 -2.159976000000002 9.109464 -2.231175185909609e-15" fill="#0045e6" stroke-width="0" transform="matrix(1,0,0,1,0,0)" style="transform:matrix(1, 0, 0, 1, 0, 0);animation-play-state:paused" ></path></g>
<g transform="translate(2156.8705253111616,-139.3305811172163) scale(100)" opacity="0.31" style="transform:matrix(100, 0, 0, 100, 2156.87, -139.331);opacity:0.31;animation-play-state:paused" ><path d="M12.753249599999997 0 C12.753249599999997 3.023966399999999 13.239794827253444 4.152223477409423 11.727811627253445 6.771055199999998 S8.995456522590574 9.532654934403727 6.3766248 11.044638134403726 S3.0239664 13.542110399999999 8.29215107753004e-16 13.542110399999999 S-3.757793077409421 12.556621334403728 -6.376624799999996 11.044638134403728 S-10.215828427253442 9.389886922590577 -11.727811627253443 6.771055200000004 S-12.753249599999997 3.023966400000001 -12.753249599999997 1.5618226301367259e-15 S-13.239794827253444 -4.152223477409421 -11.727811627253447 -6.771055199999996 S-8.995456522590578 -9.532654934403725 -6.376624800000004 -11.044638134403726 S-3.0239664000000017 -13.542110399999999 -2.487645323259012e-15 -13.542110399999999 S3.757793077409414 -12.556621334403731 6.376624799999989 -11.044638134403733 S10.21582842725344 -9.389886922590579 11.727811627253441 -6.7710552000000055 S12.753249599999997 -3.023966400000002 12.753249599999997 -3.1236452602734518e-15" fill="#3d60c1" stroke-width="0" transform="matrix(1,0,0,1,0,0)" style="transform:matrix(1, 0, 0, 1, 0, 0);animation-play-state:paused" ></path></g>
<g transform="translate(2780.192840497859,-622.8289297875463) scale(100)" opacity="0.31" style="transform:matrix(100, 0, 0, 100, 2780.19, -622.829);opacity:0.31;animation-play-state:paused" ><path d="M20.405199359999997 0 C20.405199359999997 4.838346239999999 21.183671723605514 6.643557563855079 18.764498603605514 10.833688319999998 S14.39273043614492 15.252247895045965 10.20259968 17.671421015045965 S4.83834624 21.66737664 1.3267441724048068e-15 21.66737664 S-6.0124689238550735 20.09059413504597 -10.202599679999993 17.67142101504597 S-16.34532548360551 15.023819076144926 -18.76449860360551 10.833688320000007 S-20.405199359999997 4.838346240000002 -20.405199359999997 2.498916208218762e-15 S-21.183671723605514 -6.643557563855074 -18.764498603605517 -10.833688319999995 S-14.392730436144927 -15.252247895045963 -10.202599680000008 -17.671421015045965 S-4.838346240000003 -21.66737664 -3.98023251721442e-15 -21.66737664 S6.012468923855063 -20.090594135045972 10.202599679999985 -17.671421015045976 S16.345325483605507 -15.023819076144928 18.764498603605507 -10.83368832000001 S20.405199359999997 -4.838346240000004 20.405199359999997 -4.997832416437524e-15" fill="#667395" stroke-width="0" transform="matrix(1,0,0,1,0,0)" style="transform:matrix(1, 0, 0, 1, 0, 0);animation-play-state:paused" ></path></g></g></svg>